# xmcd
#
# Track frame offsets:
#	150
#	43252
#	61176
#	80136
#	92169
#	113549
#	133489
#	147379
#	171516
#	188347
#	214265
#	227520
#	275704
#
# Disc length: 4150
#
# Revision: 1
# Processed by: cddbd v1.5.1PL0 Copyright (c) Steve Scherf et al.
# Submitted via: CDex 1.51
# Normalized: r0:TDELIM( - )
#
DISCID=c410340d
DTITLE=Various Artist - the best of blue note
DYEAR=1900
DGENRE=Jazz
TTITLE0=art blakey - moanin
TTITLE1=kenny burrell - midnight blue
TTITLE2=duke ellington - caravan
TTITLE3=count basie - the kid from red bank
TTITLE4=bud powell - un poco loco
TTITLE5=charlie parker - ornithology
TTITLE6=miles davies - rocker
TTITLE7=dexter gordon - i guess i'll hang out my tears to dry
TTITLE8=chet baker - let's get lost
TTITLE9=sonny rollins - tune up
TTITLE10=thelonious monk - criss cross
TTITLE11=john coltrane - blue train
TTITLE12=herbie hancock - maiden voyage
EXTD=
EXTT0=
EXTT1=
EXTT2=
EXTT3=
EXTT4=
EXTT5=
EXTT6=
EXTT7=
EXTT8=
EXTT9=
EXTT10=
EXTT11=
EXTT12=
PLAYORDER=
